G04*
G04 #@! TF.GenerationSoftware,Altium Limited,Altium Designer,20.0.12 (288)*
G04*
G04 Layer_Color=16711935*
%FSLAX43Y43*%
%MOMM*%
G71*
G01*
G75*
%ADD58C,3.378*%
%ADD59C,2.703*%
G04:AMPARAMS|DCode=60|XSize=1.903mm|YSize=1.703mm|CornerRadius=0.477mm|HoleSize=0mm|Usage=FLASHONLY|Rotation=180.000|XOffset=0mm|YOffset=0mm|HoleType=Round|Shape=RoundedRectangle|*
%AMROUNDEDRECTD60*
21,1,1.903,0.750,0,0,180.0*
21,1,0.950,1.703,0,0,180.0*
1,1,0.953,-0.475,0.375*
1,1,0.953,0.475,0.375*
1,1,0.953,0.475,-0.375*
1,1,0.953,-0.475,-0.375*
%
%ADD60ROUNDEDRECTD60*%
G04:AMPARAMS|DCode=61|XSize=1.703mm|YSize=1.703mm|CornerRadius=0.477mm|HoleSize=0mm|Usage=FLASHONLY|Rotation=180.000|XOffset=0mm|YOffset=0mm|HoleType=Round|Shape=RoundedRectangle|*
%AMROUNDEDRECTD61*
21,1,1.703,0.750,0,0,180.0*
21,1,0.750,1.703,0,0,180.0*
1,1,0.953,-0.375,0.375*
1,1,0.953,0.375,0.375*
1,1,0.953,0.375,-0.375*
1,1,0.953,-0.375,-0.375*
%
%ADD61ROUNDEDRECTD61*%
%ADD62C,4.203*%
%ADD63R,1.703X1.703*%
%ADD64C,1.703*%
%ADD65C,1.403*%
%ADD66C,1.473*%
%ADD67C,2.235*%
D58*
X101854Y35179D02*
D03*
X102235Y123190D02*
D03*
X35179Y35560D02*
D03*
X35687Y123063D02*
D03*
D59*
X88726Y120904D02*
D03*
X93726D02*
D03*
X45800Y120396D02*
D03*
X50800D02*
D03*
X55800D02*
D03*
D60*
X32766Y61057D02*
D03*
Y53564D02*
D03*
D61*
X35560Y59844D02*
D03*
Y54777D02*
D03*
D62*
X93218Y49252D02*
D03*
Y61444D02*
D03*
D63*
X62357Y76430D02*
D03*
D64*
X59817D02*
D03*
X57277D02*
D03*
X54737D02*
D03*
X52197D02*
D03*
X49657D02*
D03*
D65*
X100052Y57888D02*
D03*
X85852Y55348D02*
D03*
Y57888D02*
D03*
X100052Y52808D02*
D03*
X85852D02*
D03*
X51816Y45442D02*
D03*
Y47942D02*
D03*
Y50442D02*
D03*
X49316Y45442D02*
D03*
Y47942D02*
D03*
Y50442D02*
D03*
D66*
X45085Y91059D02*
D03*
X59690Y57912D02*
D03*
X59667Y52578D02*
D03*
X68199Y62078D02*
D03*
X58318Y89002D02*
D03*
X95250Y82271D02*
D03*
X51818Y53164D02*
D03*
X67905Y83758D02*
D03*
X53619Y101549D02*
D03*
X49454Y91770D02*
D03*
X61976Y84633D02*
D03*
X53483Y93193D02*
D03*
X54762Y54356D02*
D03*
X62840Y66116D02*
D03*
X87995Y69199D02*
D03*
X63157Y59093D02*
D03*
X53975Y83007D02*
D03*
X69748Y66243D02*
D03*
X71716Y59665D02*
D03*
X45923Y53467D02*
D03*
X70942Y53746D02*
D03*
X57150Y49886D02*
D03*
X56388Y95377D02*
D03*
X83320Y84328D02*
D03*
X49708Y54534D02*
D03*
Y61290D02*
D03*
X56753Y91900D02*
D03*
X67199Y104064D02*
D03*
X70585Y56364D02*
D03*
D67*
X88646Y113284D02*
D03*
M02*
