G04*
G04 #@! TF.GenerationSoftware,Altium Limited,Altium Designer,20.0.12 (288)*
G04*
G04 Layer_Physical_Order=1*
G04 Layer_Color=255*
%FSLAX43Y43*%
%MOMM*%
G71*
G01*
G75*
%ADD12C,0.200*%
%ADD14O,1.750X0.550*%
%ADD15O,0.550X1.750*%
%ADD16R,1.500X1.400*%
%ADD17R,3.000X4.000*%
%ADD18R,1.400X1.500*%
%ADD19R,1.000X1.200*%
%ADD20R,1.900X3.000*%
%ADD21R,3.300X2.700*%
%ADD22R,1.000X2.700*%
%ADD23R,1.000X1.000*%
%ADD24R,1.200X1.000*%
%ADD25R,11.430X8.890*%
%ADD26R,2.083X3.810*%
%ADD27R,4.000X7.000*%
%ADD28O,2.000X0.400*%
%ADD29O,0.600X2.200*%
%ADD30R,2.100X1.800*%
%ADD31R,1.200X1.200*%
%ADD32R,1.800X3.200*%
%ADD33R,2.000X2.000*%
%ADD34R,1.100X0.600*%
%ADD35R,2.500X2.500*%
%ADD68C,0.300*%
%ADD69C,0.381*%
%ADD70C,1.270*%
%ADD71C,3.175*%
%ADD72C,2.500*%
G04:AMPARAMS|DCode=73|XSize=1.7mm|YSize=1.5mm|CornerRadius=0.375mm|HoleSize=0mm|Usage=FLASHONLY|Rotation=180.000|XOffset=0mm|YOffset=0mm|HoleType=Round|Shape=RoundedRectangle|*
%AMROUNDEDRECTD73*
21,1,1.700,0.750,0,0,180.0*
21,1,0.950,1.500,0,0,180.0*
1,1,0.750,-0.475,0.375*
1,1,0.750,0.475,0.375*
1,1,0.750,0.475,-0.375*
1,1,0.750,-0.475,-0.375*
%
%ADD73ROUNDEDRECTD73*%
G04:AMPARAMS|DCode=74|XSize=1.5mm|YSize=1.5mm|CornerRadius=0.375mm|HoleSize=0mm|Usage=FLASHONLY|Rotation=180.000|XOffset=0mm|YOffset=0mm|HoleType=Round|Shape=RoundedRectangle|*
%AMROUNDEDRECTD74*
21,1,1.500,0.750,0,0,180.0*
21,1,0.750,1.500,0,0,180.0*
1,1,0.750,-0.375,0.375*
1,1,0.750,0.375,0.375*
1,1,0.750,0.375,-0.375*
1,1,0.750,-0.375,-0.375*
%
%ADD74ROUNDEDRECTD74*%
%ADD75C,4.000*%
%ADD76R,1.500X1.500*%
%ADD77C,1.500*%
%ADD78C,1.200*%
%ADD79C,1.270*%
%ADD80C,2.032*%
D12*
X35560Y57927D02*
X37251D01*
X38379Y59055D01*
X34773Y58577D02*
X35560D01*
X34091Y59258D02*
X34773Y58577D01*
X34091Y59258D02*
Y64414D01*
D14*
X56707Y60364D02*
D03*
Y59564D02*
D03*
Y58764D02*
D03*
Y57964D02*
D03*
Y57164D02*
D03*
Y56364D02*
D03*
Y55564D02*
D03*
Y54764D02*
D03*
Y53964D02*
D03*
Y53164D02*
D03*
Y52364D02*
D03*
X68007D02*
D03*
Y53164D02*
D03*
Y53964D02*
D03*
Y54764D02*
D03*
Y55564D02*
D03*
Y56364D02*
D03*
Y57164D02*
D03*
Y57964D02*
D03*
Y58764D02*
D03*
Y59564D02*
D03*
Y60364D02*
D03*
D15*
X58357Y50714D02*
D03*
X59157D02*
D03*
X59957D02*
D03*
X60757D02*
D03*
X61557D02*
D03*
X62357D02*
D03*
X63157D02*
D03*
X63957D02*
D03*
X64757D02*
D03*
X65557D02*
D03*
X66357D02*
D03*
Y62014D02*
D03*
X65557D02*
D03*
X64757D02*
D03*
X63957D02*
D03*
X63157D02*
D03*
X62357D02*
D03*
X61557D02*
D03*
X60757D02*
D03*
X59957D02*
D03*
X59157D02*
D03*
X58357D02*
D03*
D16*
X54483Y95369D02*
D03*
Y97369D02*
D03*
X52070Y84034D02*
D03*
Y82034D02*
D03*
X68326Y69556D02*
D03*
Y67556D02*
D03*
X57912Y81145D02*
D03*
Y83145D02*
D03*
X63373Y91781D02*
D03*
Y89781D02*
D03*
X42799Y84288D02*
D03*
Y82288D02*
D03*
X59944Y34663D02*
D03*
Y36663D02*
D03*
X78613Y60444D02*
D03*
Y62444D02*
D03*
X82042Y60444D02*
D03*
Y62444D02*
D03*
Y50252D02*
D03*
Y48252D02*
D03*
X78740Y50252D02*
D03*
Y48252D02*
D03*
X58039Y70429D02*
D03*
Y68429D02*
D03*
X53594Y68540D02*
D03*
Y66540D02*
D03*
X49530Y68445D02*
D03*
Y70445D02*
D03*
X66167Y81145D02*
D03*
Y83145D02*
D03*
X70866D02*
D03*
Y81145D02*
D03*
X72771Y89654D02*
D03*
Y91654D02*
D03*
X61976Y81145D02*
D03*
Y83145D02*
D03*
X50927Y56126D02*
D03*
Y58126D02*
D03*
X62484Y70175D02*
D03*
Y68175D02*
D03*
X98171Y85304D02*
D03*
Y83304D02*
D03*
D17*
X88265Y109601D02*
D03*
X95265D02*
D03*
D18*
X90694Y92051D02*
D03*
X92694D02*
D03*
X43926Y59055D02*
D03*
X41926D02*
D03*
X43942Y56110D02*
D03*
X41942D02*
D03*
X42291Y44450D02*
D03*
X44291D02*
D03*
X42307Y41505D02*
D03*
X44307D02*
D03*
X60563Y46331D02*
D03*
X58563D02*
D03*
X63643D02*
D03*
X65643D02*
D03*
X52086Y103505D02*
D03*
X54086D02*
D03*
X56753Y90400D02*
D03*
X54753D02*
D03*
X48498Y103505D02*
D03*
X46498D02*
D03*
X49530Y40108D02*
D03*
X51530D02*
D03*
X51959Y112776D02*
D03*
X53959D02*
D03*
X48514Y107061D02*
D03*
X46514D02*
D03*
X46387Y112776D02*
D03*
X48387D02*
D03*
X54086Y107061D02*
D03*
X52086D02*
D03*
X92091Y73255D02*
D03*
X94091D02*
D03*
X85995D02*
D03*
X87995D02*
D03*
D19*
X48625Y83923D02*
D03*
X46625D02*
D03*
X47625Y82145D02*
D03*
X42799Y87606D02*
D03*
X41799Y89384D02*
D03*
X43799D02*
D03*
X47498Y87606D02*
D03*
X46498Y89384D02*
D03*
X48498D02*
D03*
D20*
X65024Y40640D02*
D03*
X61224D02*
D03*
D21*
X91694Y81354D02*
D03*
D22*
X89394Y87254D02*
D03*
X91694D02*
D03*
X93994D02*
D03*
D23*
X41545Y62230D02*
D03*
X43545D02*
D03*
X41434Y52959D02*
D03*
X43434D02*
D03*
D24*
X42672Y49744D02*
D03*
Y47744D02*
D03*
X44450Y48744D02*
D03*
D25*
X69977Y118999D02*
D03*
D26*
X67199Y107523D02*
D03*
X72787D02*
D03*
D27*
X72009Y99187D02*
D03*
X64009D02*
D03*
D28*
X35560Y58577D02*
D03*
Y57927D02*
D03*
Y57277D02*
D03*
Y56627D02*
D03*
Y55977D02*
D03*
D29*
X50353Y98199D02*
D03*
X49403D02*
D03*
X48453D02*
D03*
X47503D02*
D03*
X50353Y93599D02*
D03*
X49403D02*
D03*
X48453D02*
D03*
X47503D02*
D03*
D30*
X73025Y69548D02*
D03*
Y66548D02*
D03*
X37719Y66421D02*
D03*
Y69421D02*
D03*
X79121Y91996D02*
D03*
Y94996D02*
D03*
X58166Y95377D02*
D03*
Y98377D02*
D03*
X103251Y83947D02*
D03*
Y86947D02*
D03*
D31*
X55626Y35433D02*
D03*
Y38433D02*
D03*
D32*
X46096Y66397D02*
D03*
X42296D02*
D03*
D33*
X84963Y82685D02*
D03*
Y86685D02*
D03*
D34*
X66996Y91919D02*
D03*
Y90019D02*
D03*
X69596Y91919D02*
D03*
Y90969D02*
D03*
Y90019D02*
D03*
D35*
X89194Y97639D02*
D03*
X94194D02*
D03*
D68*
X60757Y60630D02*
X65557D01*
X60706Y50715D02*
Y55081D01*
Y50715D02*
X60757Y50664D01*
X66980Y89306D02*
Y90019D01*
X70471Y90969D02*
X70637D01*
X69596D02*
X70471D01*
X59487Y60630D02*
X60757D01*
X67818Y51206D02*
Y52364D01*
Y46915D02*
Y51206D01*
X57150Y49886D02*
Y52364D01*
X54559Y42012D02*
Y45491D01*
Y36500D02*
Y42012D01*
X50927Y57277D02*
X53976D01*
X59157Y60960D02*
Y62064D01*
Y60960D02*
X59487Y60630D01*
X56657Y57164D02*
X58623D01*
X60757Y55030D01*
Y60630D01*
X54559Y36500D02*
X55626Y35433D01*
X54559Y45491D02*
X57319Y48251D01*
X59478D01*
X59957Y48730D01*
Y50664D01*
X66980Y89306D02*
X67945Y88341D01*
X66980Y90019D02*
X66996D01*
X64757Y62064D02*
Y74942D01*
X63957Y62064D02*
Y72695D01*
X63157Y62064D02*
Y65799D01*
Y50664D02*
Y59093D01*
X69748Y59297D02*
Y66243D01*
X69215Y58764D02*
X69748Y59297D01*
X68057Y58764D02*
X69215D01*
X68057Y57164D02*
X69215D01*
X71716Y59665D01*
X70637Y90969D02*
X71952Y89654D01*
X60757Y48260D02*
Y50664D01*
X67818Y52364D02*
X68057D01*
X69125Y55564D02*
X70942Y53746D01*
X68057Y55564D02*
X69125D01*
X56657Y52364D02*
X57150D01*
X51818Y53164D02*
X56657D01*
X50353Y93599D02*
Y94933D01*
X52370D01*
X52807Y95369D01*
X66357Y53177D02*
Y62064D01*
Y53177D02*
X68057Y53164D01*
X66357Y62064D02*
Y68603D01*
X55582Y59564D02*
X56657D01*
X47676Y67470D02*
X55582Y59564D01*
X62357Y46673D02*
Y50664D01*
X59957Y62064D02*
Y67172D01*
X53976Y57277D02*
X54889Y56364D01*
X56657D01*
X49403Y98199D02*
Y99603D01*
X52086Y102286D01*
X47503Y91079D02*
Y93599D01*
X67743Y90881D02*
X68605Y90019D01*
X69596D01*
Y91919D02*
Y92695D01*
X72009Y95108D01*
X65634Y91919D02*
X66996D01*
X54204Y58764D02*
X56657D01*
X53288Y57964D02*
X56657D01*
X59157Y49213D02*
Y50664D01*
X58790Y48845D02*
X59157Y49213D01*
X56129Y48845D02*
X58790D01*
X68057Y56364D02*
X70585D01*
X61557Y46331D02*
Y50664D01*
D69*
X65557Y52426D02*
Y60630D01*
X45085Y91059D02*
X45669D01*
X46498Y90230D01*
X42669Y91059D02*
X45085D01*
X42228Y90618D02*
X42669Y91059D01*
X59667Y52337D02*
X59915Y52089D01*
Y50706D02*
X59957Y50664D01*
X59667Y52337D02*
Y52578D01*
X59915Y50706D02*
Y52089D01*
X59300Y64635D02*
X59309Y64795D01*
X59157Y62064D02*
X59300Y64635D01*
X88265Y109601D02*
X88900Y110236D01*
X94100Y78924D02*
X94424Y79248D01*
X91376Y76200D02*
X94100Y78924D01*
X56439Y82296D02*
X57912D01*
X60904Y70175D02*
X61125Y70396D01*
X59309Y68580D02*
X60904Y70175D01*
X67359Y51666D02*
X67818Y51206D01*
X68667Y52364D02*
X73025Y48006D01*
X66660Y52364D02*
X67359Y51666D01*
X47503Y95910D02*
X52222D01*
X47447D02*
X47503D01*
X49530Y41505D02*
X51208D01*
X44307D02*
X49530D01*
X55626Y35433D02*
X56396Y34663D01*
X44704Y84718D02*
X45669Y83753D01*
X43799Y85623D02*
X44704Y84718D01*
X97086Y122599D02*
X103022Y116662D01*
X99060Y51613D02*
X102108D01*
X98857D02*
X99060D01*
X98857Y51816D02*
Y64424D01*
Y51613D02*
Y51816D01*
X89999Y122599D02*
X97086D01*
X87699D02*
X89999D01*
X87020Y118669D02*
Y121920D01*
Y118231D02*
Y118669D01*
Y118231D02*
X89681Y115570D01*
X82042Y62444D02*
Y75336D01*
X82906Y76200D01*
X91376D01*
X94424Y79248D02*
Y82271D01*
X95250D01*
X79121Y83058D02*
Y91996D01*
Y83058D02*
X82042Y80137D01*
Y76200D02*
Y80137D01*
Y76200D02*
X84766Y78924D01*
X94100D01*
X96283Y83304D02*
X98171D01*
X53959Y112776D02*
X56109D01*
X59665Y109220D01*
Y90348D02*
Y109220D01*
X58318Y89002D02*
X59665Y90348D01*
X95250Y82271D02*
X96283Y83304D01*
X98171D02*
X100068D01*
X100711Y83947D01*
X103251D01*
X75463Y45568D02*
X89534D01*
X73025Y48006D02*
X75463Y45568D01*
X73025Y48006D02*
Y66548D01*
X74219D01*
X74524Y66853D01*
Y80707D01*
X72085Y83145D02*
X74524Y80707D01*
X70866Y83145D02*
X72085D01*
X100052Y52808D02*
X104750Y57506D01*
Y86642D01*
X103251Y86947D02*
X104750Y86642D01*
X73508Y94996D02*
X79121D01*
X71349Y92837D02*
X73508Y94996D01*
X71349Y91846D02*
Y92837D01*
X70471Y90969D02*
X71349Y91846D01*
X37719Y69421D02*
Y70434D01*
X46990Y79705D02*
X54610D01*
X56058Y78257D01*
X47503Y98196D02*
Y98199D01*
Y95910D02*
Y98196D01*
X46634Y95098D02*
X47503Y95910D01*
X46498Y96520D02*
X47503Y98196D01*
X37719Y87741D02*
X46498Y96520D01*
X37719Y70434D02*
X46990Y79705D01*
X57912Y82296D02*
Y83145D01*
X56439Y78638D02*
Y82296D01*
X56058Y78257D02*
X56439Y78638D01*
X56058Y75463D02*
Y78257D01*
X46498Y96520D02*
Y103505D01*
X37719Y70434D02*
Y87741D01*
X56058Y75463D02*
X61125Y70396D01*
X60904Y70175D02*
X62484D01*
X59309Y64795D02*
Y68580D01*
X59157Y64643D02*
X59309Y64795D01*
X59157Y62064D02*
Y64643D01*
X53681Y97369D02*
X54483D01*
X52222Y95910D02*
X53681Y97369D01*
X46634Y95098D02*
X47447Y95910D01*
X46634Y91034D02*
Y95098D01*
Y91034D02*
X47498Y90170D01*
Y87606D02*
Y90170D01*
X50645Y51613D02*
X51816Y50442D01*
X48895Y51613D02*
X50645D01*
X48260Y50978D02*
X48895Y51613D01*
X48260Y49621D02*
Y50978D01*
Y49621D02*
X48895Y48986D01*
X49959D01*
X50368Y48577D01*
Y47625D02*
X51096Y46897D01*
X52070D01*
X52883Y46085D01*
X49530Y40108D02*
Y41505D01*
X51208D02*
X52883Y43180D01*
Y46085D01*
X50368Y47625D02*
Y48577D01*
X68057Y52364D02*
X68667D01*
X89534Y45568D02*
X93218Y49252D01*
X67234Y46331D02*
X67818Y46915D01*
X65557Y60630D02*
Y62064D01*
Y52426D02*
X66660Y52364D01*
X83320Y84328D02*
X84963Y82685D01*
X54483Y95369D02*
X56312D01*
X42291Y44450D02*
Y46101D01*
X41605Y46787D02*
X42291Y46101D01*
X41605Y46787D02*
Y49490D01*
X42672Y49744D01*
X46096Y64059D02*
Y66397D01*
Y64059D02*
X48865Y61290D01*
X49708D01*
Y54534D02*
X50140Y54966D01*
X52538D01*
X53137Y55564D01*
X56657D01*
X54559Y42012D02*
X58166Y38405D01*
X60960D01*
X61798Y37567D01*
Y33020D02*
Y37567D01*
X61036Y32258D02*
X61798Y33020D01*
X54712Y32258D02*
X61036D01*
X51530Y35440D02*
X54712Y32258D01*
X51530Y35440D02*
Y40108D01*
X56396Y34663D02*
X59944D01*
X66357Y62064D02*
X68047Y62230D01*
X68199Y62078D01*
X58432Y59564D02*
X59957Y58039D01*
X56657Y59564D02*
X58432D01*
X66167Y83145D02*
X67292D01*
X51905Y99835D02*
X53619Y101549D01*
X50353Y99378D02*
X51905Y99835D01*
X50353Y98199D02*
Y99378D01*
X48453Y92441D02*
Y93599D01*
Y92441D02*
X49124Y91770D01*
X49454D01*
X61976Y83145D02*
Y84633D01*
X69977Y101219D02*
X72009Y99187D01*
X35560Y57277D02*
X41656D01*
X41942Y56110D01*
X42799Y82288D02*
X44204D01*
X44704Y82788D01*
Y84718D01*
X43799Y85623D02*
Y89384D01*
X46498D02*
Y90230D01*
X54753Y90400D02*
Y91923D01*
X53483Y93193D02*
X54753Y91923D01*
X41799Y89384D02*
X42228Y90618D01*
X54762Y54356D02*
X55154Y53964D01*
X56657D01*
X41910Y84288D02*
X42799D01*
X41580Y83958D02*
X41910Y84288D01*
X41580Y81102D02*
Y83958D01*
Y81102D02*
X41808Y80874D01*
X53543D01*
X58395Y85725D01*
X73660D01*
X75235Y84150D01*
Y47650D02*
Y84150D01*
Y47650D02*
X76429Y46457D01*
X86817D01*
X88621Y48260D01*
Y65456D01*
X92354Y69190D01*
X94091D01*
X98857Y51816D02*
X99060Y51613D01*
X105385Y54889D02*
Y114300D01*
X94091Y69190D02*
Y73255D01*
Y69190D02*
X98857Y64424D01*
X102108Y51613D02*
X105385Y54889D01*
X103022Y116662D02*
X105385Y114300D01*
X94717Y116662D02*
X103022D01*
X90653Y120726D02*
X94717Y116662D01*
X90653Y120726D02*
Y121945D01*
X89999Y122599D02*
X90653Y121945D01*
X87020Y121920D02*
X87699Y122599D01*
X95265Y109601D02*
Y109986D01*
X50996Y46262D02*
X51816Y45442D01*
X50137Y46262D02*
X50996D01*
X49714Y46685D02*
X50137Y46262D01*
X46609Y46685D02*
X49714D01*
X44550Y48744D02*
X46609Y46685D01*
X44450Y48744D02*
X44550D01*
X52197Y71842D02*
Y76430D01*
X50800Y70445D02*
X52197Y71842D01*
X49530Y70445D02*
X50800D01*
X76110Y91996D02*
X79121D01*
X72771Y91654D02*
X76110Y91996D01*
X78613Y62444D02*
X82042D01*
X82793D01*
X83261Y61976D01*
Y59182D02*
Y61976D01*
X77521Y53442D02*
X83261Y59182D01*
X77521Y48577D02*
Y53442D01*
Y48577D02*
X77846Y48252D01*
X78740D01*
X72771Y91654D02*
X73660D01*
X73990Y91324D01*
Y88671D02*
Y91324D01*
X73660Y88341D02*
X73990Y88671D01*
X67945Y88341D02*
X73660D01*
X78740Y48252D02*
X82042D01*
X64757Y74942D02*
X66167Y76352D01*
Y81145D01*
X70866D01*
X57912D02*
X61976D01*
Y78537D02*
Y81145D01*
X61138Y77699D02*
X61976Y78537D01*
X61138Y75514D02*
Y77699D01*
Y75514D02*
X63957Y72695D01*
X62840Y66116D02*
X63157Y65799D01*
X87995Y69199D02*
Y73255D01*
X92091D01*
X52070Y82034D02*
X53002D01*
X53975Y83007D01*
X85852Y57888D02*
X87071Y56669D01*
Y49886D02*
Y56669D01*
X84293Y47107D02*
X87071Y49886D01*
X77546Y47107D02*
X84293D01*
X76429Y48225D02*
X77546Y47107D01*
X76429Y48225D02*
Y59055D01*
X77818Y60444D01*
X78613D01*
X82042D01*
X93218Y49252D02*
Y61444D01*
X71798Y66548D02*
X73025D01*
X70790Y67556D02*
X71798Y66548D01*
X68326Y67556D02*
X70790D01*
X84633Y56567D02*
X85852Y55348D01*
X84633Y56567D02*
Y72798D01*
X85090Y73255D01*
X85995D01*
X101516Y86947D02*
X103251D01*
X99873Y85304D02*
X101516Y86947D01*
X98171Y85304D02*
X99873D01*
X95944D02*
X98171D01*
X93994Y87254D02*
X95944Y85304D01*
X93994Y87254D02*
Y89002D01*
X92694Y90302D02*
X93994Y89002D01*
X92694Y90302D02*
Y92051D01*
Y96139D01*
X94194Y97639D01*
X93994Y83365D02*
Y87254D01*
X93789Y83160D02*
X93994Y83365D01*
X93789Y79559D02*
Y83160D01*
X84347Y79559D02*
X93789D01*
X82220Y81686D02*
X84347Y79559D01*
X82220Y81686D02*
Y94056D01*
X81280Y94996D02*
X82220Y94056D01*
X79121Y94996D02*
X81280D01*
X94194Y97639D02*
X97231Y100676D01*
Y112399D01*
X88726Y120904D02*
X97231Y112399D01*
X71952Y89654D02*
X72771D01*
X35560Y54777D02*
Y55977D01*
Y54777D02*
X39616D01*
X41434Y52959D01*
X35560Y59844D02*
X37946Y62230D01*
X41545D01*
X45923Y53467D02*
X48582Y56126D01*
X50927D01*
X41545Y62230D02*
X43663Y64348D01*
Y68580D01*
X42822Y69421D02*
X43663Y68580D01*
X37719Y69421D02*
X42822D01*
X41434Y51994D02*
Y52959D01*
X40970Y51530D02*
X41434Y51994D01*
X40970Y40640D02*
Y51530D01*
Y40640D02*
X41605Y40005D01*
X43672D01*
X44307Y40640D01*
Y41505D01*
X48311Y75084D02*
X49657Y76430D01*
X48311Y68897D02*
Y75084D01*
Y68897D02*
X48763Y68445D01*
X49530D01*
X44307Y41505D02*
Y42951D01*
X44291Y42967D02*
X44307Y42951D01*
X44291Y42967D02*
Y44450D01*
X49530Y68445D02*
X51511D01*
X51606Y68540D01*
X53594D01*
X46498Y103505D02*
Y104648D01*
X45263Y105883D02*
X46498Y104648D01*
X45263Y105883D02*
Y109347D01*
X46387Y110471D01*
Y112776D01*
Y116281D01*
X45800Y116868D02*
X46387Y116281D01*
X45800Y116868D02*
Y120396D01*
X54483Y97369D02*
X55804D01*
X56812Y98377D01*
X58166D01*
X54483Y97369D02*
Y100000D01*
X55347Y100863D01*
Y104648D01*
X54086Y105909D02*
X55347Y104648D01*
X54086Y105909D02*
Y107061D01*
X47498Y85835D02*
Y87606D01*
X46625Y84962D02*
X47498Y85835D01*
X46625Y83923D02*
Y84962D01*
X45800Y120396D02*
X47832Y122428D01*
X51181D01*
X61564Y112045D01*
Y95242D02*
Y112045D01*
Y95242D02*
X63373Y93434D01*
Y91781D02*
Y93434D01*
X60046Y47549D02*
X60757Y48260D01*
X58741Y47549D02*
X60046D01*
X58563Y46331D02*
X58741Y47549D01*
X65643Y46331D02*
X67234D01*
X83296Y50252D02*
X85852Y52808D01*
X82042Y50252D02*
X83296D01*
X78740D02*
X82042D01*
X52807Y95369D02*
X54483D01*
X56388Y95377D02*
X58166D01*
X42307Y41505D02*
Y42951D01*
X42291Y42967D02*
X42307Y42951D01*
X42291Y42967D02*
Y44450D01*
X42672Y49744D02*
X44918D01*
X49708Y54534D01*
X48453Y98199D02*
Y100813D01*
X48498Y100858D01*
Y103505D01*
Y105258D01*
X48514Y105274D01*
Y107061D01*
X66357Y68603D02*
X67310Y69556D01*
X68326D01*
X70663D01*
X70671Y69548D01*
X73025D01*
X47676Y67470D02*
Y76759D01*
X48565Y77648D01*
X52705D01*
X53442Y76911D01*
Y72390D02*
Y76911D01*
Y72390D02*
X55403Y70429D01*
X58039D01*
X62698Y46331D02*
X63643D01*
X62357Y46673D02*
X62698Y46331D01*
X63643Y44866D02*
Y46331D01*
Y44866D02*
X65024Y43485D01*
Y40640D02*
Y43485D01*
X53594Y66540D02*
X54864D01*
X56753Y68429D01*
X58039D01*
Y65393D02*
Y68429D01*
Y65393D02*
X58357Y65075D01*
Y62064D02*
Y65075D01*
X59957Y67172D02*
X60960Y68175D01*
X62484D01*
X50927Y57277D02*
Y58126D01*
X54086Y102016D02*
Y103505D01*
X53619Y101549D02*
X54086Y102016D01*
X67292Y83145D02*
X67905Y83758D01*
X52086Y102286D02*
Y103505D01*
Y107061D01*
X63373Y88900D02*
Y89781D01*
X61163Y86690D02*
X63373Y88900D01*
X54915Y86690D02*
X61163D01*
X51156Y90449D02*
X54915Y86690D01*
X48133Y90449D02*
X51156D01*
X47503Y91079D02*
X48133Y90449D01*
X63373Y89781D02*
X64618D01*
X65718Y90881D01*
X67743D01*
X48453Y93599D02*
X49403D01*
X72009Y95108D02*
Y99187D01*
X64009Y93544D02*
Y99187D01*
Y93544D02*
X65634Y91919D01*
X43926Y59055D02*
Y60005D01*
X52963D01*
X54204Y58764D01*
X43942Y56110D02*
X45229D01*
X48489Y59370D01*
X51882D01*
X53288Y57964D01*
X38379Y59055D02*
X41926D01*
Y60611D01*
X43545Y62230D01*
X41942Y54451D02*
Y56110D01*
Y54451D02*
X43434Y52959D01*
X46514Y107061D02*
Y108966D01*
X48387Y110839D01*
Y112776D01*
X51959D01*
Y119237D01*
X50800Y120396D02*
X51959Y119237D01*
X46355Y82145D02*
X47625D01*
X45669Y82831D02*
X46355Y82145D01*
X45669Y82831D02*
Y83753D01*
X47625Y82145D02*
Y84849D01*
X48498Y85722D01*
Y89384D01*
X48625Y83923D02*
X50292D01*
X50403Y84034D01*
X52070D01*
X56753Y90400D02*
Y91900D01*
X67199Y104064D02*
Y107523D01*
X55749Y49225D02*
X56129Y48845D01*
X52070Y49225D02*
X55749D01*
X52070D02*
X53721Y47574D01*
Y35306D02*
X55931Y33096D01*
X60643D01*
X61163Y33617D02*
Y36195D01*
X49316Y50442D02*
X50175D01*
X51392Y49225D01*
X52070D01*
X53721Y35306D02*
Y47574D01*
X60643Y33096D02*
X61163Y33617D01*
X60695Y36663D02*
X61163Y36195D01*
X59944Y36663D02*
X60695D01*
X57396D02*
X59944D01*
X55626Y38433D02*
X57396Y36663D01*
X42799Y84288D02*
Y87606D01*
X95265Y103710D02*
Y109601D01*
X89194Y97639D02*
X95265Y103710D01*
X34091Y64414D02*
X36098Y66421D01*
X37719D01*
X40235D01*
X40259Y66397D01*
X42296D01*
X60563Y43816D02*
Y46331D01*
Y43816D02*
X61224Y43155D01*
Y40640D02*
Y43155D01*
X60563Y46331D02*
X61557D01*
D70*
X88646Y110490D02*
Y113284D01*
Y110490D02*
X88900Y110236D01*
X89681Y115570D02*
X95265Y109986D01*
X69977Y101219D02*
Y118999D01*
X75875Y107523D02*
X78186D01*
X86233Y115570D02*
X89681D01*
X72787Y107523D02*
X75875D01*
X78186D02*
X86233Y115570D01*
X84963Y82685D02*
X86294Y81354D01*
X91694D01*
Y87254D01*
X64009Y99187D02*
Y112187D01*
X55800Y120396D02*
X64009Y112187D01*
X89194Y97639D02*
X90694Y96139D01*
Y92051D02*
Y96139D01*
Y90302D02*
Y92051D01*
X89394Y89002D02*
X90694Y90302D01*
X89394Y87254D02*
Y89002D01*
X87462Y87254D02*
X89394D01*
X86893Y86685D02*
X87462Y87254D01*
X84963Y86685D02*
X86893D01*
D71*
X101854Y35179D02*
D03*
X102235Y123190D02*
D03*
X35179Y35560D02*
D03*
X35687Y123063D02*
D03*
D72*
X88726Y120904D02*
D03*
X93726D02*
D03*
X45800Y120396D02*
D03*
X50800D02*
D03*
X55800D02*
D03*
D73*
X32766Y61057D02*
D03*
Y53564D02*
D03*
D74*
X35560Y59844D02*
D03*
Y54777D02*
D03*
D75*
X93218Y49252D02*
D03*
Y61444D02*
D03*
D76*
X100052Y57888D02*
D03*
X85852Y55348D02*
D03*
Y57888D02*
D03*
X100052Y52808D02*
D03*
X85852D02*
D03*
X62357Y76430D02*
D03*
D77*
X59817D02*
D03*
X57277D02*
D03*
X54737D02*
D03*
X52197D02*
D03*
X49657D02*
D03*
D78*
X51816Y45442D02*
D03*
Y47942D02*
D03*
Y50442D02*
D03*
X49316Y45442D02*
D03*
Y47942D02*
D03*
Y50442D02*
D03*
D79*
X45085Y91059D02*
D03*
X59690Y57912D02*
D03*
X59667Y52578D02*
D03*
X68199Y62078D02*
D03*
X58318Y89002D02*
D03*
X95250Y82271D02*
D03*
X51818Y53164D02*
D03*
X67905Y83758D02*
D03*
X53619Y101549D02*
D03*
X49454Y91770D02*
D03*
X61976Y84633D02*
D03*
X53483Y93193D02*
D03*
X54762Y54356D02*
D03*
X62840Y66116D02*
D03*
X87995Y69199D02*
D03*
X63157Y59093D02*
D03*
X53975Y83007D02*
D03*
X69748Y66243D02*
D03*
X71716Y59665D02*
D03*
X45923Y53467D02*
D03*
X70942Y53746D02*
D03*
X57150Y49886D02*
D03*
X56388Y95377D02*
D03*
X83320Y84328D02*
D03*
X49708Y54534D02*
D03*
Y61290D02*
D03*
X56753Y91900D02*
D03*
X67199Y104064D02*
D03*
X70585Y56364D02*
D03*
D80*
X88646Y113284D02*
D03*
M02*
