G04*
G04 #@! TF.GenerationSoftware,Altium Limited,Altium Designer,20.0.12 (288)*
G04*
G04 Layer_Color=32768*
%FSLAX43Y43*%
%MOMM*%
G71*
G01*
G75*
%ADD81C,0.100*%
%ADD82C,0.050*%
D81*
X61857Y56364D02*
X62857D01*
X62357Y55864D02*
Y56864D01*
X53983Y96369D02*
X54983D01*
X54483Y95869D02*
Y96869D01*
X53233Y94169D02*
Y98569D01*
X55733Y94169D02*
Y98569D01*
X53233Y94169D02*
X55733D01*
X53233Y98569D02*
X55733D01*
X51570Y83034D02*
X52570D01*
X52070Y82534D02*
Y83534D01*
X53320Y80834D02*
Y85234D01*
X50820Y80834D02*
Y85234D01*
X53320D01*
X50820Y80834D02*
X53320D01*
X67826Y68556D02*
X68826D01*
X68326Y68056D02*
Y69056D01*
X69576Y66356D02*
Y70756D01*
X67076Y66356D02*
Y70756D01*
X69576D01*
X67076Y66356D02*
X69576D01*
X91694Y91551D02*
Y92551D01*
X91194Y92051D02*
X92194D01*
X89494Y93301D02*
X93894D01*
X89494Y90801D02*
X93894D01*
X89494D02*
Y93301D01*
X93894Y90801D02*
Y93301D01*
X57412Y82145D02*
X58412D01*
X57912Y81645D02*
Y82645D01*
X56662Y79945D02*
Y84345D01*
X59162Y79945D02*
Y84345D01*
X56662Y79945D02*
X59162D01*
X56662Y84345D02*
X59162D01*
X62873Y90781D02*
X63873D01*
X63373Y90281D02*
Y91281D01*
X64623Y88581D02*
Y92981D01*
X62123Y88581D02*
Y92981D01*
X64623D01*
X62123Y88581D02*
X64623D01*
X42299Y83288D02*
X43299D01*
X42799Y82788D02*
Y83788D01*
X44049Y81088D02*
Y85488D01*
X41549Y81088D02*
Y85488D01*
X44049D01*
X41549Y81088D02*
X44049D01*
X91194Y84304D02*
X92194D01*
X91694Y83804D02*
Y84804D01*
X87844Y79504D02*
Y89104D01*
X95544Y79504D02*
Y89104D01*
X87844Y79504D02*
X95544D01*
X87844Y89104D02*
X95544D01*
X42926Y58555D02*
Y59555D01*
X42426Y59055D02*
X43426D01*
X40726Y57805D02*
X45126D01*
X40726Y60305D02*
X45126D01*
Y57805D02*
Y60305D01*
X40726Y57805D02*
Y60305D01*
X42942Y55610D02*
Y56610D01*
X42442Y56110D02*
X43442D01*
X40742Y54860D02*
X45142D01*
X40742Y57360D02*
X45142D01*
Y54860D02*
Y57360D01*
X40742Y54860D02*
Y57360D01*
X43291Y43950D02*
Y44950D01*
X42791Y44450D02*
X43791D01*
X41091Y45700D02*
X45491D01*
X41091Y43200D02*
X45491D01*
X41091D02*
Y45700D01*
X45491Y43200D02*
Y45700D01*
X43307Y41005D02*
Y42005D01*
X42807Y41505D02*
X43807D01*
X41107Y42755D02*
X45507D01*
X41107Y40255D02*
X45507D01*
X41107D02*
Y42755D01*
X45507Y40255D02*
Y42755D01*
X59444Y35663D02*
X60444D01*
X59944Y35163D02*
Y36163D01*
X58694Y33463D02*
Y37863D01*
X61194Y33463D02*
Y37863D01*
X58694Y33463D02*
X61194D01*
X58694Y37863D02*
X61194D01*
X59563Y45831D02*
Y46831D01*
X59063Y46331D02*
X60063D01*
X57363Y45081D02*
X61763D01*
X57363Y47581D02*
X61763D01*
Y45081D02*
Y47581D01*
X57363Y45081D02*
Y47581D01*
X64643Y45831D02*
Y46831D01*
X64143Y46331D02*
X65143D01*
X62443Y47581D02*
X66843D01*
X62443Y45081D02*
X66843D01*
X62443D02*
Y47581D01*
X66843Y45081D02*
Y47581D01*
X53086Y103005D02*
Y104005D01*
X52586Y103505D02*
X53586D01*
X50886Y104755D02*
X55286D01*
X50886Y102255D02*
X55286D01*
X50886D02*
Y104755D01*
X55286Y102255D02*
Y104755D01*
X55753Y89900D02*
Y90900D01*
X55253Y90400D02*
X56253D01*
X53553Y89150D02*
X57953D01*
X53553Y91650D02*
X57953D01*
Y89150D02*
Y91650D01*
X53553Y89150D02*
Y91650D01*
X47498Y103005D02*
Y104005D01*
X46998Y103505D02*
X47998D01*
X45298Y102255D02*
X49698D01*
X45298Y104755D02*
X49698D01*
Y102255D02*
Y104755D01*
X45298Y102255D02*
Y104755D01*
X77363Y59244D02*
X79863D01*
X77363Y63644D02*
X79863D01*
X77363Y59244D02*
Y63644D01*
X79863Y59244D02*
Y63644D01*
X78613Y60944D02*
Y61944D01*
X78113Y61444D02*
X79113D01*
X80792Y59244D02*
X83292D01*
X80792Y63644D02*
X83292D01*
X80792Y59244D02*
Y63644D01*
X83292Y59244D02*
Y63644D01*
X82042Y60944D02*
Y61944D01*
X81542Y61444D02*
X82542D01*
X80792Y51452D02*
X83292D01*
X80792Y47052D02*
X83292D01*
Y51452D01*
X80792Y47052D02*
Y51452D01*
X82042Y48752D02*
Y49752D01*
X81542Y49252D02*
X82542D01*
X77490Y51452D02*
X79990D01*
X77490Y47052D02*
X79990D01*
Y51452D01*
X77490Y47052D02*
Y51452D01*
X78740Y48752D02*
Y49752D01*
X78240Y49252D02*
X79240D01*
X56789Y71629D02*
X59289D01*
X56789Y67229D02*
X59289D01*
Y71629D01*
X56789Y67229D02*
Y71629D01*
X58039Y68929D02*
Y69929D01*
X57539Y69429D02*
X58539D01*
X52344Y69740D02*
X54844D01*
X52344Y65340D02*
X54844D01*
Y69740D01*
X52344Y65340D02*
Y69740D01*
X53594Y67040D02*
Y68040D01*
X53094Y67540D02*
X54094D01*
X48330Y38858D02*
Y41358D01*
X52730Y38858D02*
Y41358D01*
X48330D02*
X52730D01*
X48330Y38858D02*
X52730D01*
X50030Y40108D02*
X51030D01*
X50530Y39608D02*
Y40608D01*
X48280Y67245D02*
X50780D01*
X48280Y71645D02*
X50780D01*
X48280Y67245D02*
Y71645D01*
X50780Y67245D02*
Y71645D01*
X49530Y68945D02*
Y69945D01*
X49030Y69445D02*
X50030D01*
X50759Y111526D02*
Y114026D01*
X55159Y111526D02*
Y114026D01*
X50759D02*
X55159D01*
X50759Y111526D02*
X55159D01*
X52459Y112776D02*
X53459D01*
X52959Y112276D02*
Y113276D01*
X49714Y105811D02*
Y108311D01*
X45314Y105811D02*
Y108311D01*
Y105811D02*
X49714D01*
X45314Y108311D02*
X49714D01*
X47014Y107061D02*
X48014D01*
X47514Y106561D02*
Y107561D01*
X64917Y79945D02*
X67417D01*
X64917Y84345D02*
X67417D01*
X64917Y79945D02*
Y84345D01*
X67417Y79945D02*
Y84345D01*
X66167Y81645D02*
Y82645D01*
X65667Y82145D02*
X66667D01*
X45187Y111526D02*
Y114026D01*
X49587Y111526D02*
Y114026D01*
X45187D02*
X49587D01*
X45187Y111526D02*
X49587D01*
X46887Y112776D02*
X47887D01*
X47387Y112276D02*
Y113276D01*
X55286Y105811D02*
Y108311D01*
X50886Y105811D02*
Y108311D01*
Y105811D02*
X55286D01*
X50886Y108311D02*
X55286D01*
X52586Y107061D02*
X53586D01*
X53086Y106561D02*
Y107561D01*
X69616Y84345D02*
X72116D01*
X69616Y79945D02*
X72116D01*
Y84345D01*
X69616Y79945D02*
Y84345D01*
X70866Y81645D02*
Y82645D01*
X70366Y82145D02*
X71366D01*
X90891Y72005D02*
Y74505D01*
X95291Y72005D02*
Y74505D01*
X90891D02*
X95291D01*
X90891Y72005D02*
X95291D01*
X92591Y73255D02*
X93591D01*
X93091Y72755D02*
Y73755D01*
X84795Y72005D02*
Y74505D01*
X89195Y72005D02*
Y74505D01*
X84795D02*
X89195D01*
X84795Y72005D02*
X89195D01*
X86495Y73255D02*
X87495D01*
X86995Y72755D02*
Y73755D01*
X71521Y88454D02*
X74021D01*
X71521Y92854D02*
X74021D01*
X71521Y88454D02*
Y92854D01*
X74021Y88454D02*
Y92854D01*
X72771Y90154D02*
Y91154D01*
X72271Y90654D02*
X73271D01*
X60726Y79945D02*
X63226D01*
X60726Y84345D02*
X63226D01*
X60726Y79945D02*
Y84345D01*
X63226Y79945D02*
Y84345D01*
X61976Y81645D02*
Y82645D01*
X61476Y82145D02*
X62476D01*
X49677Y54926D02*
X52177D01*
X49677Y59326D02*
X52177D01*
X49677Y54926D02*
Y59326D01*
X52177Y54926D02*
Y59326D01*
X50927Y56626D02*
Y57626D01*
X50427Y57126D02*
X51427D01*
X61234Y71375D02*
X63734D01*
X61234Y66975D02*
X63734D01*
Y71375D01*
X61234Y66975D02*
Y71375D01*
X62484Y68675D02*
Y69675D01*
X61984Y69175D02*
X62984D01*
X96921Y86504D02*
X99421D01*
X96921Y82104D02*
X99421D01*
Y86504D01*
X96921Y82104D02*
Y86504D01*
X98171Y83804D02*
Y84804D01*
X97671Y84304D02*
X98671D01*
D82*
X55607Y49614D02*
Y63114D01*
X69107Y49614D02*
Y63114D01*
X55607D02*
X69107D01*
X55607Y49614D02*
X69107D01*
M02*
