G04*
G04 #@! TF.GenerationSoftware,Altium Limited,Altium Designer,20.0.12 (288)*
G04*
G04 Layer_Color=65535*
%FSLAX43Y43*%
%MOMM*%
G71*
G01*
G75*
%ADD10C,0.250*%
%ADD11C,0.600*%
%ADD12C,0.200*%
%ADD13C,0.254*%
D10*
X56832Y61189D02*
G03*
X56832Y61189I-125J0D01*
G01*
X95169Y87254D02*
G03*
X95169Y87254I-125J0D01*
G01*
D11*
X59307Y59714D02*
G03*
X59307Y59714I-300J0D01*
G01*
D12*
X50828Y96136D02*
G03*
X50828Y95661I0J-237D01*
G01*
X68534Y89544D02*
G03*
X68059Y89544I-237J0D01*
G01*
X58007Y52014D02*
Y60714D01*
X66707Y52014D02*
Y60714D01*
X58007D02*
X66707D01*
X58007Y52014D02*
X66707D01*
X53833Y96369D02*
X55133D01*
X51420Y83034D02*
X52720D01*
X67676Y68556D02*
X68976D01*
X86304Y107569D02*
Y112141D01*
Y107569D02*
X86812Y107061D01*
X97265D01*
Y109601D01*
X86304Y112141D02*
X97265D01*
Y109601D02*
Y112141D01*
X91694Y91401D02*
Y92701D01*
X57262Y82145D02*
X58562D01*
X62723Y90781D02*
X64023D01*
X45847Y81256D02*
Y84812D01*
Y81256D02*
X49403D01*
X45847Y84812D02*
X49403D01*
Y81256D02*
Y84812D01*
X42149Y83288D02*
X43449D01*
X66680Y40346D02*
Y42799D01*
X59568D02*
X66680D01*
X59568Y38481D02*
Y42799D01*
Y38481D02*
X66680D01*
Y40346D01*
X86059Y123190D02*
X96346D01*
Y118364D02*
Y123190D01*
X86059Y118364D02*
X96346D01*
X86059D02*
Y123190D01*
X88344Y83004D02*
Y85604D01*
X95044Y83004D02*
Y85604D01*
X88344Y83004D02*
X95044D01*
X88344Y85604D02*
X95044D01*
X40640Y61214D02*
X44577D01*
Y63246D01*
X40640D02*
X44577D01*
X40640Y61214D02*
Y63246D01*
X42926Y58405D02*
Y59705D01*
X42942Y55460D02*
Y56760D01*
X40529Y51943D02*
X44466D01*
Y53975D01*
X40529D02*
X44466D01*
X40529Y51943D02*
Y53975D01*
X41783Y46966D02*
X45339D01*
Y50522D01*
X41783Y46966D02*
Y50522D01*
X45339D01*
X43291Y43800D02*
Y45100D01*
X43307Y40855D02*
Y42155D01*
X59294Y35663D02*
X60594D01*
X59563Y45681D02*
Y46981D01*
X64643Y45681D02*
Y46981D01*
X53086Y102855D02*
Y104155D01*
X42752Y122428D02*
X58500D01*
Y117856D02*
Y122428D01*
X42752Y117856D02*
X58500D01*
X42752D02*
Y122428D01*
X55753Y89750D02*
Y91050D01*
X47498Y102855D02*
Y104155D01*
X66231Y101092D02*
X69787D01*
X66231Y97155D02*
X69787D01*
X50828Y96137D02*
Y96802D01*
Y95024D02*
Y95661D01*
X47028Y95024D02*
X50828D01*
X47028D02*
Y96802D01*
X50828D01*
X86741Y49252D02*
Y55694D01*
X99187Y49252D02*
Y61444D01*
X86741Y55694D02*
Y61444D01*
X77963D02*
X79263D01*
X81392D02*
X82692D01*
X81392Y49252D02*
X82692D01*
X78090D02*
X79390D01*
X71374Y71223D02*
X73112D01*
X74692Y64492D02*
Y71223D01*
X73112D02*
X74692D01*
X71374Y67191D02*
Y70302D01*
Y65127D02*
X72009Y64492D01*
X74692D01*
X71374Y70302D02*
Y71223D01*
Y65127D02*
Y67191D01*
X48387Y75160D02*
Y77700D01*
X63627Y75160D02*
Y77700D01*
X48387Y75160D02*
X63627D01*
X48387Y77700D02*
X63627D01*
X57389Y69429D02*
X58689D01*
X52944Y67540D02*
X54244D01*
X50530Y39458D02*
Y40758D01*
X54991Y33885D02*
X56134D01*
X54229Y34647D02*
X54991Y33885D01*
X54229Y34647D02*
Y39854D01*
X56134Y33885D02*
X56896Y34647D01*
Y39854D01*
X54229D02*
X54547D01*
X56896D01*
X48260Y44299D02*
X52832D01*
X48260D02*
Y51538D01*
X52832D01*
Y44299D02*
Y51538D01*
X48880Y69445D02*
X50180D01*
X52959Y112126D02*
Y113426D01*
X47514Y106411D02*
Y107711D01*
X65517Y82145D02*
X66817D01*
X47387Y112126D02*
Y113426D01*
X37632Y64746D02*
X39370D01*
X36052D02*
Y71477D01*
Y64746D02*
X37632D01*
X39370Y65667D02*
Y68778D01*
X38735Y71477D02*
X39370Y70842D01*
X36052Y71477D02*
X38735D01*
X39370Y64746D02*
Y65667D01*
Y68778D02*
Y70842D01*
X53086Y106411D02*
Y107711D01*
X70216Y82145D02*
X71516D01*
X93091Y72605D02*
Y73905D01*
X86995Y72605D02*
Y73905D01*
X44577Y86717D02*
Y90273D01*
X41021D02*
X44577D01*
X41021Y86717D02*
X44577D01*
X41021D02*
Y90273D01*
X43400Y68048D02*
X44958D01*
X43400Y64746D02*
X44958D01*
X49276Y86717D02*
Y90273D01*
X45720D02*
X49276D01*
X45720Y86717D02*
X49276D01*
X45720D02*
Y90273D01*
X84273Y80875D02*
X86487D01*
Y88495D01*
X83439D02*
X86487D01*
X83439Y80875D02*
Y88495D01*
Y80875D02*
X84273D01*
X79034Y90321D02*
X80772D01*
X77454D02*
Y97052D01*
Y90321D02*
X79034D01*
X80772Y91242D02*
Y94353D01*
X80137Y97052D02*
X80772Y96417D01*
X77454Y97052D02*
X80137D01*
X80772Y90321D02*
Y91242D01*
Y94353D02*
Y96417D01*
X72121Y90654D02*
X73421D01*
X61326Y82145D02*
X62626D01*
X68961Y89544D02*
Y92394D01*
X67564D02*
X68961D01*
X67564Y89544D02*
Y92394D01*
Y89544D02*
X68058D01*
X68534D02*
X68961D01*
X50277Y57126D02*
X51577D01*
X61834Y69175D02*
X63134D01*
X58079Y93702D02*
X59817D01*
X56499D02*
Y100433D01*
Y93702D02*
X58079D01*
X59817Y94623D02*
Y97734D01*
X59182Y100433D02*
X59817Y99798D01*
X56499Y100433D02*
X59182D01*
X59817Y93702D02*
Y94623D01*
Y97734D02*
Y99798D01*
X103164Y82272D02*
X104902D01*
X101584D02*
Y89003D01*
Y82272D02*
X103164D01*
X104902Y83193D02*
Y86304D01*
X104267Y89003D02*
X104902Y88368D01*
X101584Y89003D02*
X104267D01*
X104902Y82272D02*
Y83193D01*
Y86304D02*
Y88368D01*
X87249Y95607D02*
Y98194D01*
Y95607D02*
X96393D01*
Y98909D01*
X95504Y99798D02*
X96393Y98909D01*
X87249Y99798D02*
X95504D01*
X87249Y98194D02*
Y99798D01*
X97521Y84304D02*
X98821D01*
D13*
X33909Y61184D02*
X35560D01*
Y60803D02*
Y61184D01*
X33909Y53437D02*
X35560D01*
Y53818D01*
X95504Y49252D02*
X99187D01*
X86741D02*
X90932D01*
X95504Y61444D02*
X99187D01*
X86741D02*
X90932D01*
X74295Y34544D02*
Y36068D01*
X74803Y35560D01*
X75311Y36068D01*
Y34544D01*
X75819D02*
X76326D01*
X76072D01*
Y35560D01*
X75819D01*
X78104D02*
X77342D01*
X77088Y35306D01*
Y34798D01*
X77342Y34544D01*
X78104D01*
X78612Y36068D02*
Y34544D01*
Y35306D01*
X78866Y35560D01*
X79373D01*
X79627Y35306D01*
Y34544D01*
X80135D02*
X80643D01*
X80389D01*
Y35560D01*
X80135D01*
X82166Y34544D02*
X81659D01*
X81405Y34798D01*
Y35306D01*
X81659Y35560D01*
X82166D01*
X82420Y35306D01*
Y35052D01*
X81405D01*
X82928Y34544D02*
X83436D01*
X83182D01*
Y36068D01*
X82928D01*
X85721D02*
Y34544D01*
X86483D01*
X86737Y34798D01*
Y35814D01*
X86483Y36068D01*
X85721D01*
X88007Y34544D02*
X87499D01*
X87245Y34798D01*
Y35306D01*
X87499Y35560D01*
X88007D01*
X88260Y35306D01*
Y35052D01*
X87245D01*
X88768Y35560D02*
X89276Y34544D01*
X89784Y35560D01*
X90292D02*
Y34798D01*
X90546Y34544D01*
X91308D01*
Y35560D01*
X92577Y34544D02*
X92069D01*
X91815Y34798D01*
Y35306D01*
X92069Y35560D01*
X92577D01*
X92831Y35306D01*
Y35052D01*
X91815D01*
X88472Y124841D02*
X88726Y125095D01*
X89234D01*
X89488Y124841D01*
Y123825D01*
X89234Y123571D01*
X88726D01*
X88472Y123825D01*
Y124841D01*
X93043Y124333D02*
X94058D01*
X93550Y124841D02*
Y123825D01*
X45800Y124079D02*
X46054Y124333D01*
X46562D01*
X46816Y124079D01*
Y123063D01*
X46562Y122809D01*
X46054D01*
X45800Y123063D01*
Y124079D01*
X50371Y124333D02*
X51386D01*
X50878D01*
Y122809D01*
X54941D02*
Y124333D01*
X55703D01*
X55957Y124079D01*
Y123571D01*
X55703Y123317D01*
X54941D01*
X59700Y44704D02*
X60716Y43180D01*
Y44704D02*
X59700Y43180D01*
X61224D02*
X61732D01*
X61478D01*
Y44704D01*
X61224Y44450D01*
X64418Y125824D02*
X65433D01*
X64925D01*
Y124300D01*
X65941D02*
X66449D01*
X66195D01*
Y125824D01*
X65941Y125570D01*
X62167Y103556D02*
Y105079D01*
X62929D01*
X63183Y104825D01*
Y104318D01*
X62929Y104064D01*
X62167D01*
X62675D02*
X63183Y103556D01*
X63691D02*
X64198D01*
X63944D01*
Y105079D01*
X63691Y104825D01*
X64960D02*
X65214Y105079D01*
X65722D01*
X65976Y104825D01*
Y104571D01*
X65722Y104318D01*
X65976Y104064D01*
Y103810D01*
X65722Y103556D01*
X65214D01*
X64960Y103810D01*
Y104064D01*
X65214Y104318D01*
X64960Y104571D01*
Y104825D01*
X65214Y104318D02*
X65722D01*
X83185Y110236D02*
Y108712D01*
X83947D01*
X84201Y108966D01*
Y109982D01*
X83947Y110236D01*
X83185D01*
X85725Y108712D02*
X84709D01*
X85725Y109728D01*
Y109982D01*
X85471Y110236D01*
X84963D01*
X84709Y109982D01*
X32080Y64185D02*
Y62662D01*
Y63170D01*
X33096Y64185D01*
X32334Y63424D01*
X33096Y62662D01*
X34619D02*
X33604D01*
X34619Y63677D01*
Y63931D01*
X34365Y64185D01*
X33858D01*
X33604Y63931D01*
X45872Y92660D02*
X46888D01*
X46380D01*
Y91137D01*
X48158D02*
Y92660D01*
X47396Y91898D01*
X48412D01*
X44577Y80518D02*
X45593D01*
X45085D01*
Y78994D01*
X46101Y80264D02*
X46355Y80518D01*
X46863D01*
X47117Y80264D01*
Y80010D01*
X46863Y79756D01*
X46609D01*
X46863D01*
X47117Y79502D01*
Y79248D01*
X46863Y78994D01*
X46355D01*
X46101Y79248D01*
X41173Y92660D02*
X42189D01*
X41681D01*
Y91137D01*
X43713D02*
X42697D01*
X43713Y92152D01*
Y92406D01*
X43459Y92660D01*
X42951D01*
X42697Y92406D01*
X61469Y93345D02*
Y94869D01*
X62230D01*
X62484Y94615D01*
Y94107D01*
X62230Y93853D01*
X61469D01*
X61976D02*
X62484Y93345D01*
X64008D02*
X62992D01*
X64008Y94361D01*
Y94615D01*
X63754Y94869D01*
X63246D01*
X62992Y94615D01*
X65531Y93345D02*
X64516D01*
X65531Y94361D01*
Y94615D01*
X65277Y94869D01*
X64770D01*
X64516Y94615D01*
X60935Y85168D02*
Y86691D01*
X61696D01*
X61950Y86437D01*
Y85929D01*
X61696Y85675D01*
X60935D01*
X61442D02*
X61950Y85168D01*
X63474D02*
X62458D01*
X63474Y86183D01*
Y86437D01*
X63220Y86691D01*
X62712D01*
X62458Y86437D01*
X63982Y85168D02*
X64489D01*
X64236D01*
Y86691D01*
X63982Y86437D01*
X50293Y87376D02*
Y88900D01*
X51054D01*
X51308Y88646D01*
Y88138D01*
X51054Y87884D01*
X50293D01*
X50800D02*
X51308Y87376D01*
X52832D02*
X51816D01*
X52832Y88392D01*
Y88646D01*
X52578Y88900D01*
X52070D01*
X51816Y88646D01*
X53340D02*
X53594Y88900D01*
X54101D01*
X54355Y88646D01*
Y87630D01*
X54101Y87376D01*
X53594D01*
X53340Y87630D01*
Y88646D01*
X50420Y85471D02*
Y86995D01*
X51181D01*
X51435Y86741D01*
Y86233D01*
X51181Y85979D01*
X50420D01*
X50927D02*
X51435Y85471D01*
X51943D02*
X52451D01*
X52197D01*
Y86995D01*
X51943Y86741D01*
X53213Y85725D02*
X53467Y85471D01*
X53974D01*
X54228Y85725D01*
Y86741D01*
X53974Y86995D01*
X53467D01*
X53213Y86741D01*
Y86487D01*
X53467Y86233D01*
X54228D01*
X39498Y78613D02*
Y80137D01*
X40259D01*
X40513Y79883D01*
Y79375D01*
X40259Y79121D01*
X39498D01*
X40005D02*
X40513Y78613D01*
X41021D02*
X41529D01*
X41275D01*
Y80137D01*
X41021Y79883D01*
X42291Y80137D02*
X43306D01*
Y79883D01*
X42291Y78867D01*
Y78613D01*
X61850Y35052D02*
Y36576D01*
X62611D01*
X62865Y36322D01*
Y35814D01*
X62611Y35560D01*
X61850D01*
X62357D02*
X62865Y35052D01*
X63373D02*
X63881D01*
X63627D01*
Y36576D01*
X63373Y36322D01*
X65658Y36576D02*
X65151Y36322D01*
X64643Y35814D01*
Y35306D01*
X64897Y35052D01*
X65404D01*
X65658Y35306D01*
Y35560D01*
X65404Y35814D01*
X64643D01*
X51079Y109118D02*
Y110642D01*
X51841D01*
X52095Y110388D01*
Y109880D01*
X51841Y109626D01*
X51079D01*
X51587D02*
X52095Y109118D01*
X52603D02*
X53111D01*
X52857D01*
Y110642D01*
X52603Y110388D01*
X54888Y110642D02*
X53873D01*
Y109880D01*
X54380Y110134D01*
X54634D01*
X54888Y109880D01*
Y109372D01*
X54634Y109118D01*
X54126D01*
X53873Y109372D01*
X45393Y114846D02*
Y116370D01*
X46155D01*
X46409Y116116D01*
Y115608D01*
X46155Y115354D01*
X45393D01*
X45901D02*
X46409Y114846D01*
X46917D02*
X47424D01*
X47171D01*
Y116370D01*
X46917Y116116D01*
X48948Y114846D02*
Y116370D01*
X48186Y115608D01*
X49202D01*
X65126Y85168D02*
Y86691D01*
X65887D01*
X66141Y86437D01*
Y85929D01*
X65887Y85675D01*
X65126D01*
X65633D02*
X66141Y85168D01*
X66649D02*
X67157D01*
X66903D01*
Y86691D01*
X66649Y86437D01*
X67919D02*
X68173Y86691D01*
X68680D01*
X68934Y86437D01*
Y86183D01*
X68680Y85929D01*
X68427D01*
X68680D01*
X68934Y85675D01*
Y85422D01*
X68680Y85168D01*
X68173D01*
X67919Y85422D01*
X45507Y109118D02*
Y110642D01*
X46269D01*
X46523Y110388D01*
Y109880D01*
X46269Y109626D01*
X45507D01*
X46015D02*
X46523Y109118D01*
X47031D02*
X47539D01*
X47285D01*
Y110642D01*
X47031Y110388D01*
X49316Y109118D02*
X48300D01*
X49316Y110134D01*
Y110388D01*
X49062Y110642D01*
X48554D01*
X48300Y110388D01*
X50965Y114846D02*
Y116370D01*
X51727D01*
X51981Y116116D01*
Y115608D01*
X51727Y115354D01*
X50965D01*
X51473D02*
X51981Y114846D01*
X52489D02*
X52996D01*
X52743D01*
Y116370D01*
X52489Y116116D01*
X53758Y114846D02*
X54266D01*
X54012D01*
Y116370D01*
X53758Y116116D01*
X56135Y104140D02*
Y105664D01*
X56896D01*
X57150Y105410D01*
Y104902D01*
X56896Y104648D01*
X56135D01*
X56642D02*
X57150Y104140D01*
X57658D02*
X58166D01*
X57912D01*
Y105664D01*
X57658Y105410D01*
X58928D02*
X59182Y105664D01*
X59689D01*
X59943Y105410D01*
Y104394D01*
X59689Y104140D01*
X59182D01*
X58928Y104394D01*
Y105410D01*
X84988Y75312D02*
Y76836D01*
X85750D01*
X86004Y76582D01*
Y76074D01*
X85750Y75820D01*
X84988D01*
X85496D02*
X86004Y75312D01*
X86512Y75566D02*
X86766Y75312D01*
X87274D01*
X87528Y75566D01*
Y76582D01*
X87274Y76836D01*
X86766D01*
X86512Y76582D01*
Y76328D01*
X86766Y76074D01*
X87528D01*
X37719Y43688D02*
Y45212D01*
X38481D01*
X38735Y44958D01*
Y44450D01*
X38481Y44196D01*
X37719D01*
X38227D02*
X38735Y43688D01*
X39243Y44958D02*
X39497Y45212D01*
X40005D01*
X40259Y44958D01*
Y44704D01*
X40005Y44450D01*
X40259Y44196D01*
Y43942D01*
X40005Y43688D01*
X39497D01*
X39243Y43942D01*
Y44196D01*
X39497Y44450D01*
X39243Y44704D01*
Y44958D01*
X39497Y44450D02*
X40005D01*
X91097Y75325D02*
Y76849D01*
X91859D01*
X92113Y76595D01*
Y76087D01*
X91859Y75833D01*
X91097D01*
X91605D02*
X92113Y75325D01*
X92621Y76849D02*
X93636D01*
Y76595D01*
X92621Y75579D01*
Y75325D01*
X37592Y55626D02*
Y57150D01*
X38354D01*
X38608Y56896D01*
Y56388D01*
X38354Y56134D01*
X37592D01*
X38100D02*
X38608Y55626D01*
X40132Y57150D02*
X39624Y56896D01*
X39116Y56388D01*
Y55880D01*
X39370Y55626D01*
X39878D01*
X40132Y55880D01*
Y56134D01*
X39878Y56388D01*
X39116D01*
X81001Y64467D02*
Y65990D01*
X81762D01*
X82016Y65736D01*
Y65228D01*
X81762Y64974D01*
X81001D01*
X81508D02*
X82016Y64467D01*
X83540Y65990D02*
X82524D01*
Y65228D01*
X83032Y65482D01*
X83286D01*
X83540Y65228D01*
Y64721D01*
X83286Y64467D01*
X82778D01*
X82524Y64721D01*
X37592Y58547D02*
Y60071D01*
X38354D01*
X38608Y59817D01*
Y59309D01*
X38354Y59055D01*
X37592D01*
X38100D02*
X38608Y58547D01*
X39878D02*
Y60071D01*
X39116Y59309D01*
X40132D01*
X37465Y61595D02*
Y63119D01*
X38227D01*
X38481Y62865D01*
Y62357D01*
X38227Y62103D01*
X37465D01*
X37973D02*
X38481Y61595D01*
X38989Y62865D02*
X39243Y63119D01*
X39751D01*
X40005Y62865D01*
Y62611D01*
X39751Y62357D01*
X39497D01*
X39751D01*
X40005Y62103D01*
Y61849D01*
X39751Y61595D01*
X39243D01*
X38989Y61849D01*
X37465Y52578D02*
Y54102D01*
X38227D01*
X38481Y53848D01*
Y53340D01*
X38227Y53086D01*
X37465D01*
X37973D02*
X38481Y52578D01*
X40005D02*
X38989D01*
X40005Y53594D01*
Y53848D01*
X39751Y54102D01*
X39243D01*
X38989Y53848D01*
X81001Y52275D02*
Y53798D01*
X81762D01*
X82016Y53544D01*
Y53036D01*
X81762Y52782D01*
X81001D01*
X81508D02*
X82016Y52275D01*
X82524D02*
X83032D01*
X82778D01*
Y53798D01*
X82524Y53544D01*
X96267Y80264D02*
X96774D01*
X96520D01*
Y78740D01*
X96267D01*
X96774D01*
X98552Y80010D02*
X98298Y80264D01*
X97790D01*
X97536Y80010D01*
Y78994D01*
X97790Y78740D01*
X98298D01*
X98552Y78994D01*
X99060Y78740D02*
X99567D01*
X99314D01*
Y80264D01*
X99060Y80010D01*
X48539Y80087D02*
Y78564D01*
X49555D01*
X51079Y79833D02*
X50825Y80087D01*
X50317D01*
X50063Y79833D01*
Y78818D01*
X50317Y78564D01*
X50825D01*
X51079Y78818D01*
X51586Y80087D02*
Y78564D01*
X52348D01*
X52602Y78818D01*
Y79833D01*
X52348Y80087D01*
X51586D01*
X53110Y78564D02*
X53618D01*
X53364D01*
Y80087D01*
X53110Y79833D01*
X56998Y73966D02*
Y72442D01*
X58013D01*
X58521D02*
X59029D01*
X58775D01*
Y73966D01*
X58521Y73712D01*
X48412Y53925D02*
Y52402D01*
Y52909D01*
X49428Y53925D01*
X48666Y53163D01*
X49428Y52402D01*
X50698D02*
Y53925D01*
X49936Y53163D01*
X50952D01*
X40513Y125095D02*
Y123571D01*
Y124079D01*
X41529Y125095D01*
X40767Y124333D01*
X41529Y123571D01*
X42037Y124841D02*
X42291Y125095D01*
X42799D01*
X43053Y124841D01*
Y124587D01*
X42799Y124333D01*
X42545D01*
X42799D01*
X43053Y124079D01*
Y123825D01*
X42799Y123571D01*
X42291D01*
X42037Y123825D01*
X84074Y125857D02*
Y124333D01*
Y124841D01*
X85090Y125857D01*
X84328Y125095D01*
X85090Y124333D01*
X85598D02*
X86106D01*
X85852D01*
Y125857D01*
X85598Y125603D01*
X55397Y65887D02*
X55905D01*
X55651D01*
Y64364D01*
X55397D01*
X55905D01*
X57683Y65633D02*
X57429Y65887D01*
X56921D01*
X56667Y65633D01*
Y64618D01*
X56921Y64364D01*
X57429D01*
X57683Y64618D01*
X58952Y64364D02*
Y65887D01*
X58190Y65125D01*
X59206D01*
X66599Y94768D02*
X67107D01*
X66853D01*
Y93245D01*
X66599D01*
X67107D01*
X68884Y94514D02*
X68630Y94768D01*
X68122D01*
X67868Y94514D01*
Y93499D01*
X68122Y93245D01*
X68630D01*
X68884Y93499D01*
X69392Y94514D02*
X69646Y94768D01*
X70154D01*
X70408Y94514D01*
Y94260D01*
X70154Y94007D01*
X69900D01*
X70154D01*
X70408Y93753D01*
Y93499D01*
X70154Y93245D01*
X69646D01*
X69392Y93499D01*
X48219Y101323D02*
X48727D01*
X48473D01*
Y99799D01*
X48219D01*
X48727D01*
X50505Y101069D02*
X50251Y101323D01*
X49743D01*
X49489Y101069D01*
Y100053D01*
X49743Y99799D01*
X50251D01*
X50505Y100053D01*
X52028Y99799D02*
X51013D01*
X52028Y100815D01*
Y101069D01*
X51774Y101323D01*
X51266D01*
X51013Y101069D01*
X42570Y70435D02*
X41554D01*
Y69673D01*
X42062D01*
X41554D01*
Y68912D01*
X43078D02*
X43586D01*
X43332D01*
Y70435D01*
X43078Y70181D01*
X86271Y65825D02*
X85255D01*
Y64301D01*
X86271D01*
X85255Y65063D02*
X85763D01*
X86779Y64301D02*
Y65825D01*
X87794Y64301D01*
Y65825D01*
X89318Y65571D02*
X89064Y65825D01*
X88556D01*
X88302Y65571D01*
Y64555D01*
X88556Y64301D01*
X89064D01*
X89318Y64555D01*
X89826Y64301D02*
X90333D01*
X90080D01*
Y65825D01*
X89826Y65571D01*
X83604Y90869D02*
Y89346D01*
X84366D01*
X84620Y89600D01*
Y90615D01*
X84366Y90869D01*
X83604D01*
X85889Y89346D02*
Y90869D01*
X85128Y90108D01*
X86143D01*
X38481Y49403D02*
Y47879D01*
X39243D01*
X39497Y48133D01*
Y49149D01*
X39243Y49403D01*
X38481D01*
X40005Y49149D02*
X40259Y49403D01*
X40767D01*
X41021Y49149D01*
Y48895D01*
X40767Y48641D01*
X40513D01*
X40767D01*
X41021Y48387D01*
Y48133D01*
X40767Y47879D01*
X40259D01*
X40005Y48133D01*
X54381Y42241D02*
Y40718D01*
X55143D01*
X55397Y40972D01*
Y41987D01*
X55143Y42241D01*
X54381D01*
X55905Y40718D02*
X56413D01*
X56159D01*
Y42241D01*
X55905Y41987D01*
X50901Y61418D02*
X50647Y61672D01*
X50140D01*
X49886Y61418D01*
Y60403D01*
X50140Y60149D01*
X50647D01*
X50901Y60403D01*
X52425Y60149D02*
X51409D01*
X52425Y61164D01*
Y61418D01*
X52171Y61672D01*
X51663D01*
X51409Y61418D01*
X53694Y60149D02*
Y61672D01*
X52933Y60910D01*
X53948D01*
X62458Y73458D02*
X62204Y73712D01*
X61697D01*
X61443Y73458D01*
Y72442D01*
X61697Y72188D01*
X62204D01*
X62458Y72442D01*
X63982Y72188D02*
X62966D01*
X63982Y73204D01*
Y73458D01*
X63728Y73712D01*
X63220D01*
X62966Y73458D01*
X64490D02*
X64744Y73712D01*
X65251D01*
X65505Y73458D01*
Y73204D01*
X65251Y72950D01*
X64997D01*
X65251D01*
X65505Y72696D01*
Y72442D01*
X65251Y72188D01*
X64744D01*
X64490Y72442D01*
X53568Y71832D02*
X53314Y72086D01*
X52807D01*
X52553Y71832D01*
Y70817D01*
X52807Y70563D01*
X53314D01*
X53568Y70817D01*
X55092Y70563D02*
X54076D01*
X55092Y71578D01*
Y71832D01*
X54838Y72086D01*
X54330D01*
X54076Y71832D01*
X56615Y70563D02*
X55600D01*
X56615Y71578D01*
Y71832D01*
X56361Y72086D01*
X55854D01*
X55600Y71832D01*
X72745Y94946D02*
X72491Y95200D01*
X71984D01*
X71730Y94946D01*
Y93931D01*
X71984Y93677D01*
X72491D01*
X72745Y93931D01*
X74269Y93677D02*
X73253D01*
X74269Y94692D01*
Y94946D01*
X74015Y95200D01*
X73507D01*
X73253Y94946D01*
X74777Y93677D02*
X75284D01*
X75031D01*
Y95200D01*
X74777Y94946D01*
X72542Y73356D02*
X72288Y73610D01*
X71780D01*
X71526Y73356D01*
Y72341D01*
X71780Y72087D01*
X72288D01*
X72542Y72341D01*
X74066Y72087D02*
X73050D01*
X74066Y73102D01*
Y73356D01*
X73812Y73610D01*
X73304D01*
X73050Y73356D01*
X74573D02*
X74827Y73610D01*
X75335D01*
X75589Y73356D01*
Y72341D01*
X75335Y72087D01*
X74827D01*
X74573Y72341D01*
Y73356D01*
X68961Y46990D02*
X68707Y47244D01*
X68200D01*
X67946Y46990D01*
Y45974D01*
X68200Y45720D01*
X68707D01*
X68961Y45974D01*
X69469Y45720D02*
X69977D01*
X69723D01*
Y47244D01*
X69469Y46990D01*
X70739Y45974D02*
X70993Y45720D01*
X71500D01*
X71754Y45974D01*
Y46990D01*
X71500Y47244D01*
X70993D01*
X70739Y46990D01*
Y46736D01*
X70993Y46482D01*
X71754D01*
X78625Y99172D02*
X78371Y99426D01*
X77864D01*
X77610Y99172D01*
Y98157D01*
X77864Y97903D01*
X78371D01*
X78625Y98157D01*
X79133Y97903D02*
X79641D01*
X79387D01*
Y99426D01*
X79133Y99172D01*
X80403D02*
X80657Y99426D01*
X81165D01*
X81418Y99172D01*
Y98919D01*
X81165Y98665D01*
X81418Y98411D01*
Y98157D01*
X81165Y97903D01*
X80657D01*
X80403Y98157D01*
Y98411D01*
X80657Y98665D01*
X80403Y98919D01*
Y99172D01*
X80657Y98665D02*
X81165D01*
X54229Y46482D02*
X53975Y46736D01*
X53468D01*
X53214Y46482D01*
Y45466D01*
X53468Y45212D01*
X53975D01*
X54229Y45466D01*
X54737Y45212D02*
X55245D01*
X54991D01*
Y46736D01*
X54737Y46482D01*
X56007Y46736D02*
X57022D01*
Y46482D01*
X56007Y45466D01*
Y45212D01*
X49539Y43435D02*
X49285Y43689D01*
X48777D01*
X48523Y43435D01*
Y42419D01*
X48777Y42165D01*
X49285D01*
X49539Y42419D01*
X50047Y42165D02*
X50555D01*
X50301D01*
Y43689D01*
X50047Y43435D01*
X52332Y43689D02*
X51824Y43435D01*
X51317Y42927D01*
Y42419D01*
X51570Y42165D01*
X52078D01*
X52332Y42419D01*
Y42673D01*
X52078Y42927D01*
X51317D01*
X57506Y86233D02*
X57252Y86487D01*
X56744D01*
X56490Y86233D01*
Y85217D01*
X56744Y84963D01*
X57252D01*
X57506Y85217D01*
X58014Y84963D02*
X58522D01*
X58268D01*
Y86487D01*
X58014Y86233D01*
X60299Y86487D02*
X59283D01*
Y85725D01*
X59791Y85979D01*
X60045D01*
X60299Y85725D01*
Y85217D01*
X60045Y84963D01*
X59537D01*
X59283Y85217D01*
X67691Y72898D02*
X67437Y73152D01*
X66930D01*
X66676Y72898D01*
Y71882D01*
X66930Y71628D01*
X67437D01*
X67691Y71882D01*
X68199Y71628D02*
X68707D01*
X68453D01*
Y73152D01*
X68199Y72898D01*
X70230Y71628D02*
Y73152D01*
X69469Y72390D01*
X70484D01*
X70840Y86437D02*
X70586Y86691D01*
X70079D01*
X69825Y86437D01*
Y85422D01*
X70079Y85168D01*
X70586D01*
X70840Y85422D01*
X71348Y85168D02*
X71856D01*
X71602D01*
Y86691D01*
X71348Y86437D01*
X72618D02*
X72872Y86691D01*
X73379D01*
X73633Y86437D01*
Y86183D01*
X73379Y85929D01*
X73126D01*
X73379D01*
X73633Y85675D01*
Y85422D01*
X73379Y85168D01*
X72872D01*
X72618Y85422D01*
X41402Y104418D02*
X41148Y104672D01*
X40641D01*
X40387Y104418D01*
Y103402D01*
X40641Y103148D01*
X41148D01*
X41402Y103402D01*
X41910Y103148D02*
X42418D01*
X42164D01*
Y104672D01*
X41910Y104418D01*
X44195Y103148D02*
X43180D01*
X44195Y104164D01*
Y104418D01*
X43941Y104672D01*
X43434D01*
X43180Y104418D01*
X37223Y73597D02*
X36969Y73851D01*
X36462D01*
X36208Y73597D01*
Y72582D01*
X36462Y72328D01*
X36969D01*
X37223Y72582D01*
X37731Y72328D02*
X38239D01*
X37985D01*
Y73851D01*
X37731Y73597D01*
X39001Y72328D02*
X39509D01*
X39255D01*
Y73851D01*
X39001Y73597D01*
X49504Y73737D02*
X49250Y73991D01*
X48743D01*
X48489Y73737D01*
Y72722D01*
X48743Y72468D01*
X49250D01*
X49504Y72722D01*
X50012Y72468D02*
X50520D01*
X50266D01*
Y73991D01*
X50012Y73737D01*
X51282D02*
X51536Y73991D01*
X52043D01*
X52297Y73737D01*
Y72722D01*
X52043Y72468D01*
X51536D01*
X51282Y72722D01*
Y73737D01*
X54229Y100203D02*
X53975Y100457D01*
X53467D01*
X53213Y100203D01*
Y99187D01*
X53467Y98933D01*
X53975D01*
X54229Y99187D01*
X54737D02*
X54991Y98933D01*
X55499D01*
X55753Y99187D01*
Y100203D01*
X55499Y100457D01*
X54991D01*
X54737Y100203D01*
Y99949D01*
X54991Y99695D01*
X55753D01*
X38989Y41910D02*
X38735Y42164D01*
X38227D01*
X37973Y41910D01*
Y40894D01*
X38227Y40640D01*
X38735D01*
X38989Y40894D01*
X39497Y41910D02*
X39751Y42164D01*
X40259D01*
X40513Y41910D01*
Y41656D01*
X40259Y41402D01*
X40513Y41148D01*
Y40894D01*
X40259Y40640D01*
X39751D01*
X39497Y40894D01*
Y41148D01*
X39751Y41402D01*
X39497Y41656D01*
Y41910D01*
X39751Y41402D02*
X40259D01*
X57670Y102553D02*
X57416Y102807D01*
X56909D01*
X56655Y102553D01*
Y101538D01*
X56909Y101284D01*
X57416D01*
X57670Y101538D01*
X58178Y102807D02*
X59194D01*
Y102553D01*
X58178Y101538D01*
Y101284D01*
X102755Y91123D02*
X102501Y91377D01*
X101994D01*
X101740Y91123D01*
Y90108D01*
X101994Y89854D01*
X102501D01*
X102755Y90108D01*
X104279Y91377D02*
X103771Y91123D01*
X103263Y90616D01*
Y90108D01*
X103517Y89854D01*
X104025D01*
X104279Y90108D01*
Y90362D01*
X104025Y90616D01*
X103263D01*
X98145Y88596D02*
X97891Y88850D01*
X97384D01*
X97130Y88596D01*
Y87581D01*
X97384Y87327D01*
X97891D01*
X98145Y87581D01*
X99669Y88850D02*
X98653D01*
Y88088D01*
X99161Y88342D01*
X99415D01*
X99669Y88088D01*
Y87581D01*
X99415Y87327D01*
X98907D01*
X98653Y87581D01*
X90678Y94869D02*
X90424Y95123D01*
X89916D01*
X89662Y94869D01*
Y93853D01*
X89916Y93599D01*
X90424D01*
X90678Y93853D01*
X91948Y93599D02*
Y95123D01*
X91186Y94361D01*
X92202D01*
X88417Y101931D02*
X88163Y102185D01*
X87655D01*
X87401Y101931D01*
Y100916D01*
X87655Y100662D01*
X88163D01*
X88417Y100916D01*
X88925Y101931D02*
X89179Y102185D01*
X89687D01*
X89941Y101931D01*
Y101677D01*
X89687Y101423D01*
X89433D01*
X89687D01*
X89941Y101169D01*
Y100916D01*
X89687Y100662D01*
X89179D01*
X88925Y100916D01*
X78587Y65736D02*
X78333Y65990D01*
X77826D01*
X77572Y65736D01*
Y64721D01*
X77826Y64467D01*
X78333D01*
X78587Y64721D01*
X80111Y64467D02*
X79095D01*
X80111Y65482D01*
Y65736D01*
X79857Y65990D01*
X79349D01*
X79095Y65736D01*
X78714Y53544D02*
X78460Y53798D01*
X77953D01*
X77699Y53544D01*
Y52529D01*
X77953Y52275D01*
X78460D01*
X78714Y52529D01*
X79222Y52275D02*
X79730D01*
X79476D01*
Y53798D01*
X79222Y53544D01*
M02*
