M48
;Layer_Color=9474304
;FILE_FORMAT=4:3
METRIC,LZ
;TYPE=PLATED
T1F00S00C0.711
T2F00S00C0.900
T3F00S00C1.000
T5F00S00C1.270
T6F00S00C1.400
T7F00S00C3.000
;TYPE=NON_PLATED
T8F00S00C3.175
%
T01
X0087995Y0069199
X0069748Y0066243
X0068199Y0062078
X0071716Y0059665
X0070585Y0056364
X0070942Y0053746
X0059667Y0052578
X005715Y0049886
X0054762Y0054356
X0051818Y0053164
X0049708Y0054534
X0045923Y0053467
X0049708Y006129
X005969Y0057912
X0063157Y0059093
X006284Y0066116
X0061976Y0084633
X0067905Y0083758
X0053975Y0083007
X0058318Y0089002
X0056753Y00919
X0056388Y0095377
X0053483Y0093193
X0049454Y009177
X0045085Y0091059
X0053619Y0101549
X0067199Y0104064
X008332Y0084328
X009525Y0082271
T02
X0049657Y007643
X0052197
X0054737
X0057277
X0059817
X0062357
T03
X0085852Y0052808
Y0055348
Y0057888
X0100052
Y0052808
X0051816Y0050442
Y0047942
Y0045442
X0049316
Y0047942
Y0050442
T05
X0088646Y0113284
T06
X0088726Y0120904
X0093726
X00558Y0120396
X00508
X00458
T07
X0093218Y0049252
Y0061444
T08
X0035179Y003556
X0101854Y0035179
X0102235Y012319
X0035687Y0123063
M30
